<svg class="animated" id="freepik_stories-task" xmlns="http://www.w3.org/2000/svg" viewBox="0 0 500 500" version="1.1" xmlns:xlink="http://www.w3.org/1999/xlink" xmlns:svgjs="http://svgjs.com/svgjs"><style>svg#freepik_stories-task:not(.animated) .animable {opacity: 0;}svg#freepik_stories-task.animated #freepik--background-complete--inject-9 {animation: 1s 1 forwards cubic-bezier(.36,-0.01,.5,1.38) slideLeft,3s Infinite  linear floating;animation-delay: 0s,1s;}svg#freepik_stories-task.animated #freepik--Plant--inject-9 {animation: 1s 1 forwards linear slideLeft,3s Infinite  linear floating;animation-delay: 0s,1s;}svg#freepik_stories-task.animated #freepik--Chair--inject-9 {animation: 1s 1 forwards cubic-bezier(.36,-0.01,.5,1.38) slideLeft,3s Infinite  linear floating;animation-delay: 0s,1s;}svg#freepik_stories-task.animated #freepik--Table--inject-9 {animation: 1s 1 forwards cubic-bezier(.36,-0.01,.5,1.38) slideUp,3s Infinite  linear floating;animation-delay: 0s,1s;}svg#freepik_stories-task.animated #freepik--Sheets--inject-9 {animation: 1s 1 forwards ease-in slideUp,3s Infinite  linear floating;animation-delay: 0s,1s;}svg#freepik_stories-task.animated #freepik--Clipboard--inject-9 {animation: 1s 1 forwards cubic-bezier(.36,-0.01,.5,1.38) slideDown,3s Infinite  linear floating;animation-delay: 0s,1s;}svg#freepik_stories-task.animated #freepik--Character--inject-9 {animation: 1s 1 forwards cubic-bezier(.36,-0.01,.5,1.38) slideDown,3s Infinite  linear floating;animation-delay: 0s,1s;}            @keyframes slideLeft {                0% {                    opacity: 0;                    transform: translateX(-30px);                }                100% {                    opacity: 1;                    transform: translateX(0);                }            }                    @keyframes floating {                0% {                    opacity: 1;                    transform: translateY(0px);                }                50% {                    transform: translateY(-10px);                }                100% {                    opacity: 1;                    transform: translateY(0px);                }            }                    @keyframes slideUp {                0% {                    opacity: 0;                    transform: translateY(30px);                }                100% {                    opacity: 1;                    transform: inherit;                }            }                    @keyframes slideDown {                0% {                    opacity: 0;                    transform: translateY(-30px);                }                100% {                    opacity: 1;                    transform: translateY(0);                }            }        </style><g id="freepik--background-complete--inject-9" class="animable" style="transform-origin: 250px 255.38px;"><rect x="57.7" y="388.26" width="32.2" height="11.19" style="fill: rgb(235, 235, 235); transform-origin: 73.8px 393.855px;" id="elwasgvfzzsp" class="animable"></rect><rect x="39.73" y="402.37" width="32.2" height="11.19" style="fill: rgb(235, 235, 235); transform-origin: 55.83px 407.965px;" id="elwqawdsjkyh" class="animable"></rect><rect x="131.89" y="178.56" width="32.2" height="11.19" style="fill: rgb(235, 235, 235); transform-origin: 147.99px 184.155px;" id="elcop1flaigbw" class="animable"></rect><rect x="113.93" y="192.67" width="32.2" height="11.19" style="fill: rgb(235, 235, 235); transform-origin: 130.03px 198.265px;" id="el7qwk6qkoaua" class="animable"></rect><rect x="96.04" y="178.56" width="32.2" height="11.19" style="fill: rgb(235, 235, 235); transform-origin: 112.14px 184.155px;" id="elno0irnbss7h" class="animable"></rect><rect x="428.06" y="402.37" width="32.2" height="11.19" style="fill: rgb(235, 235, 235); transform-origin: 444.16px 407.965px;" id="elpahbwt1yrfc" class="animable"></rect><rect x="410.1" y="50.16" width="32.2" height="11.19" style="fill: rgb(235, 235, 235); transform-origin: 426.2px 55.755px;" id="elfapi2uu8x7d" class="animable"></rect><rect x="428.06" y="64.27" width="32.2" height="11.19" style="fill: rgb(235, 235, 235); transform-origin: 444.16px 69.865px;" id="elne5u3uq9dj" class="animable"></rect><rect x="39.73" y="50.16" width="32.2" height="11.19" style="fill: rgb(235, 235, 235); transform-origin: 55.83px 55.755px;" id="eljm73x4u3ddr" class="animable"></rect><rect x="36.62" y="124.73" width="145.6" height="6.25" style="fill: rgb(235, 235, 235); transform-origin: 109.42px 127.855px;" id="elnt7di5f235a" class="animable"></rect><polygon points="57.79 155.59 52.12 155.59 49.84 130.98 57.79 130.98 57.79 155.59" style="fill: rgb(235, 235, 235); transform-origin: 53.815px 143.285px;" id="el95aq7zc7vq" class="animable"></polygon><polygon points="161.05 155.59 166.72 155.59 169 130.98 161.05 130.98 161.05 155.59" style="fill: rgb(235, 235, 235); transform-origin: 165.025px 143.285px;" id="el2udunm1bq9t" class="animable"></polygon><polygon points="49.84 130.98 57.78 130.98 57.78 139.45 50.62 139.45 49.84 130.98" style="fill: rgb(219, 219, 219); transform-origin: 53.81px 135.215px;" id="elzftpn4fn4yl" class="animable"></polygon><polygon points="168.99 130.98 168.21 139.45 161.05 139.45 161.05 130.98 168.99 130.98" style="fill: rgb(219, 219, 219); transform-origin: 165.02px 135.215px;" id="el8nhma2r94p4" class="animable"></polygon><path d="M78.68,91.32c-5.75,7.79-11.75,16.84-13.21,26.61,0,.15.22.2.25,0a57.73,57.73,0,0,1,2.55-7.83c3.78-1,7.49-1.89,9.48-5.65s1.77-8.89,1.38-13.1C79.11,91.18,78.8,91.17,78.68,91.32Z" style="fill: rgb(235, 235, 235); transform-origin: 72.43px 104.638px;" id="elepe45qskyev" class="animable"></path><path d="M68.32,110.08a64.6,64.6,0,0,1,10.13-16.4s.07,0,0,0a69.86,69.86,0,0,0-6.91,10.86c1.91-1.93,4-3.66,5.8-5.72,0,0,.09,0,.06.06A31.6,31.6,0,0,1,71.35,105c-.62,1.16-1.25,2.32-1.89,3.47l.48-.24s0,0,0,0a5.36,5.36,0,0,1-.54.26c-.3.55-.6,1.1-.91,1.65C68.44,110.31,68.27,110.2,68.32,110.08Z" style="fill: rgb(166, 166, 166); transform-origin: 73.396px 101.954px;" id="eljsyjq1nwq5h" class="animable"></path><path d="M70.25,108.06a34.57,34.57,0,0,0,4.41-3s.1,0,.06,0a23.23,23.23,0,0,1-4.41,3C70.24,108.2,70.18,108.1,70.25,108.06Z" style="fill: rgb(166, 166, 166); transform-origin: 72.4741px 106.596px;" id="el1ojgvqebdof" class="animable"></path><path d="M64.84,117.84a.11.11,0,0,0,.21,0c0-3.22,0-6.45,0-9.68.82-1.67,2.59-2.59,3.82-3.92a17.32,17.32,0,0,0,2.3-3.2,22.88,22.88,0,0,0,2.66-8.88c.34-3.44-1-14.8-2.41-14.41-.76.2-3.19,5.83-3.84,7.69a53.48,53.48,0,0,0-2.29,9.44A100.27,100.27,0,0,0,64.84,117.84Z" style="fill: rgb(235, 235, 235); transform-origin: 69.1348px 97.8287px;" id="elf4q281i9lz" class="animable"></path><path d="M64.81,104l0,0a73,73,0,0,1,2-12.13A40.68,40.68,0,0,1,71,79.75c0-.07.14,0,.11.06a44.6,44.6,0,0,0-3.37,9.26c.14-.23.32-.45.47-.67s.2,0,.15.09a6,6,0,0,1-.69,1l0,0c-.75,3-1.29,6.15-1.76,9.25L66,98.6s.06,0,0,0-.12.2-.18.31c-.23,1.57-.45,3.14-.67,4.7A22,22,0,0,0,71.71,95s0,0,0,0a18.05,18.05,0,0,1-6.62,9l-.18,1.26c0,.08-.15.06-.15,0,0-.38,0-.75,0-1.12A.09.09,0,0,1,64.81,104Z" style="fill: rgb(166, 166, 166); transform-origin: 68.2264px 92.5168px;" id="el38npm71ygfv" class="animable"></path><path d="M66.14,98.05a64.65,64.65,0,0,0,5.71-9.84s.09,0,.07,0a31.71,31.71,0,0,1-5.68,9.9A.07.07,0,0,1,66.14,98.05Z" style="fill: rgb(166, 166, 166); transform-origin: 69.0314px 93.1634px;" id="el7vp7qvj6pmw" class="animable"></path><path d="M69,87.42c.89-1.57,1.83-3.1,2.66-4.7a0,0,0,0,1,.07,0,24.21,24.21,0,0,1-2.59,4.74C69.06,87.58,68.93,87.51,69,87.42Z" style="fill: rgb(166, 166, 166); transform-origin: 70.355px 85.1219px;" id="el9vmmiirb1n" class="animable"></path><path d="M68.64,88.11s0,0,0,0S68.62,88.11,68.64,88.11Z" style="fill: rgb(166, 166, 166); transform-origin: 68.6356px 88.11px;" id="elk9efrsvehi" class="animable"></path><path d="M63.26,109.59a32.21,32.21,0,0,1-.75,6.35c0,.22.07.45.1.69a30.32,30.32,0,0,0,1.13-7.07.2.2,0,0,0,0-.22h0A45.91,45.91,0,0,0,63,99.76c-1-5.92-3.17-11.6-7.3-16a.29.29,0,0,0-.45.09c-1.67,4.24-1.09,9.29.33,13.51a24.62,24.62,0,0,0,3.27,6.42C60.31,105.74,62.11,107.42,63.26,109.59Z" style="fill: rgb(235, 235, 235); transform-origin: 59.0023px 100.159px;" id="ellykqv5ul6qm" class="animable"></path><path d="M56.23,85.71a45.48,45.48,0,0,1,7,21.37c0,.13-.21.16-.23,0-.09-.67-.2-1.34-.31-2h0A25.5,25.5,0,0,1,58.21,100s0-.07.06,0a53.1,53.1,0,0,0,4.31,4.69c-.28-1.66-.61-3.29-1-4.9l-.31-.36c-.07-.08.05-.2.12-.12l.09.11a56.15,56.15,0,0,0-2-6.49,19.37,19.37,0,0,1-2.83-3.65s0-.06,0,0a27.91,27.91,0,0,0,1.81,2.4c.26.3.55.59.82.88a49.61,49.61,0,0,0-3.2-6.67C56,85.7,56.17,85.62,56.23,85.71Z" style="fill: rgb(166, 166, 166); transform-origin: 59.6445px 96.4311px;" id="el4ertwc4iv4k" class="animable"></path><path d="M57,93.54c1.27,1.7,2.71,3.32,3.88,5.08a.05.05,0,0,1-.08.06,25.67,25.67,0,0,1-3.88-5.09C56.9,93.53,57,93.49,57,93.54Z" style="fill: rgb(166, 166, 166); transform-origin: 58.9036px 96.1085px;" id="el6m8vdwowcn4" class="animable"></path><path d="M61.08,99l.05.06s0,.09-.06.06l0-.06S61,99,61.08,99Z" style="fill: rgb(166, 166, 166); transform-origin: 61.0858px 99.0631px;" id="eldj6uehm4aw6" class="animable"></path><path d="M49.5,96.31A19.51,19.51,0,0,0,53.63,106,10.36,10.36,0,0,0,57,108.6c1.45.71,3,1.54,4.47,2.13A29.11,29.11,0,0,1,63,116.34c0-.16.1-.33.14-.49C62.2,107.58,56.85,100.52,50,96A.34.34,0,0,0,49.5,96.31Z" style="fill: rgb(235, 235, 235); transform-origin: 56.3199px 106.15px;" id="elfzygjiot7lg" class="animable"></path><path d="M51.87,98.75a.06.06,0,0,1,.07-.09,27.94,27.94,0,0,1,8.71,10.74.1.1,0,0,1-.17.1c-.31-.56-.64-1.1-1-1.63h0a9.27,9.27,0,0,1-4.2-2.44s0-.07,0,0a10.08,10.08,0,0,0,2,1.39c.64.32,1.32.52,2,.78-.58-.92-1.18-1.8-1.81-2.65a18.2,18.2,0,0,1-4.69-2.64c-.05,0,0-.11,0-.08a48.22,48.22,0,0,0,4.36,2.34,36,36,0,0,0-3.08-3.59c-.53-.28-1.06-.57-1.58-.87,0,0,0-.09,0-.08a5.92,5.92,0,0,1,1.21.6C53.18,100,52.55,99.35,51.87,98.75Z" style="fill: rgb(166, 166, 166); transform-origin: 56.2582px 104.096px;" id="elfyx71znpt3f" class="animable"></path><path d="M52,101.6a1.74,1.74,0,0,1,.26.19s0,0,0,0a1.43,1.43,0,0,1-.27-.15S52,101.57,52,101.6Z" style="fill: rgb(166, 166, 166); transform-origin: 52.125px 101.691px;" id="elyzq4yz23mdi" class="animable"></path><polygon points="71.58 124.72 57.49 124.72 58.18 115.49 58.45 112.48 70.49 112.48 70.76 115.49 71.58 124.72" style="fill: rgb(219, 219, 219); transform-origin: 64.535px 118.6px;" id="el1a9zcf8zm2m" class="animable"></polygon><polygon points="70.76 115.49 58.18 115.49 58.45 112.48 70.49 112.48 70.76 115.49" style="fill: rgb(199, 199, 199); transform-origin: 64.47px 113.985px;" id="el4jrcjalsm56" class="animable"></polygon><rect x="57.49" y="110.01" width="13.96" height="3.09" style="fill: rgb(219, 219, 219); transform-origin: 64.47px 111.555px;" id="elnhvmk0geqwb" class="animable"></rect><g id="elq3k78d1tp2j"><rect x="91.04" y="98.4" width="42.01" height="10.58" style="fill: rgb(199, 199, 199); transform-origin: 112.045px 103.69px; transform: rotate(90deg);" class="animable"></rect></g><g id="elvt5ji1vwrn9"><rect x="109.74" y="77.46" width="4.62" height="10.58" style="fill: rgb(219, 219, 219); transform-origin: 112.05px 82.75px; transform: rotate(90deg);" class="animable"></rect></g><g id="elg8ht8im8ozl"><rect x="111.19" y="86.54" width="1.71" height="10.58" style="fill: rgb(219, 219, 219); transform-origin: 112.045px 91.83px; transform: rotate(90deg);" class="animable"></rect></g><g id="eljwxg3enrm3b"><rect x="109.74" y="111.59" width="4.62" height="10.58" style="fill: rgb(219, 219, 219); transform-origin: 112.05px 116.88px; transform: rotate(90deg);" class="animable"></rect></g><g id="ely8qabs1ypr"><rect x="96.53" y="96.5" width="49.01" height="7.39" style="fill: rgb(219, 219, 219); transform-origin: 121.035px 100.195px; transform: rotate(90deg);" class="animable"></rect></g><g id="elvzj4y6g1e"><rect x="111.58" y="87.5" width="18.85" height="4.44" style="fill: rgb(235, 235, 235); transform-origin: 121.005px 89.72px; transform: rotate(90deg);" class="animable"></rect></g><g id="elpoiobpnajk"><rect x="132.87" y="101.09" width="49.01" height="7.39" style="fill: rgb(199, 199, 199); transform-origin: 157.375px 104.785px; transform: rotate(44.67deg);" class="animable"></rect></g><g id="els5ejuf2b7z8"><rect x="150.51" y="105.07" width="18.85" height="4.44" style="fill: rgb(219, 219, 219); transform-origin: 159.935px 107.29px; transform: rotate(44.67deg);" class="animable"></rect></g><g id="el4xuln3g0887"><rect x="112.39" y="99.82" width="37.23" height="12.56" style="fill: rgb(166, 166, 166); transform-origin: 131.005px 106.1px; transform: rotate(90deg);" class="animable"></rect></g><g id="el7nntprm6anl"><rect x="129.27" y="112.75" width="3.47" height="12.56" style="fill: rgb(199, 199, 199); transform-origin: 131.005px 119.03px; transform: rotate(90deg);" class="animable"></rect></g><g id="eldgdjonzzzwn"><rect x="130.33" y="108.06" width="1.35" height="12.56" style="fill: rgb(199, 199, 199); transform-origin: 131.005px 114.34px; transform: rotate(90deg);" class="animable"></rect></g><g id="elg7ctj1v23x4"><rect x="78.44" y="102.6" width="34.98" height="8.67" style="fill: rgb(166, 166, 166); transform-origin: 95.93px 106.935px; transform: rotate(113.23deg);" class="animable"></rect></g><g id="elarh49bq5yri"><rect x="89.51" y="113.77" width="3.26" height="8.67" style="fill: rgb(199, 199, 199); transform-origin: 91.14px 118.105px; transform: rotate(113.23deg);" class="animable"></rect></g><g id="elkf2it4mbnzc"><rect x="97.72" y="94.65" width="3.26" height="8.67" style="fill: rgb(199, 199, 199); transform-origin: 99.35px 98.985px; transform: rotate(113.24deg);" class="animable"></rect></g><g id="elwxal7z535nf"><rect x="96.94" y="98.79" width="1.26" height="8.67" style="fill: rgb(199, 199, 199); transform-origin: 97.57px 103.125px; transform: rotate(113.24deg);" class="animable"></rect></g><path d="M332.7,311.74V460.6h90V311.74Zm81.82,93.92H340.87V366.91h73.65Zm0-48H340.87V318.93h73.65Z" style="fill: rgb(219, 219, 219); transform-origin: 377.7px 386.17px;" id="elt8ztc0n3t7" class="animable"></path><rect x="422.69" y="311.74" width="40.69" height="148.86" style="fill: rgb(235, 235, 235); transform-origin: 443.035px 386.17px;" id="el5xvd180qd4a" class="animable"></rect><rect x="340.87" y="318.93" width="17.5" height="38.75" style="fill: rgb(235, 235, 235); transform-origin: 349.62px 338.305px;" id="elvww4koa5s" class="animable"></rect><path d="M414.77,451.51H341.08V414.06h73.69Zm-73.19-.5h72.69V414.56H341.58Z" style="fill: rgb(235, 235, 235); transform-origin: 377.925px 432.785px;" id="el91wzia7cya8" class="animable"></path><rect x="370.65" y="424.7" width="14.54" height="5.31" style="fill: rgb(235, 235, 235); transform-origin: 377.92px 427.355px;" id="eleoy7511k6q" class="animable"></rect><rect x="340.87" y="366.91" width="17.5" height="38.75" style="fill: rgb(235, 235, 235); transform-origin: 349.62px 386.285px;" id="elhnhyskx3ve" class="animable"></rect><g id="elc96y5my50th"><rect x="380.42" y="381.64" width="35.73" height="12.31" style="fill: rgb(166, 166, 166); transform-origin: 398.285px 387.795px; transform: rotate(90deg);" class="animable"></rect></g><g id="el2ef05x7h4qd"><rect x="394.43" y="389.92" width="7.71" height="12.31" style="fill: rgb(219, 219, 219); transform-origin: 398.285px 396.075px; transform: rotate(90deg);" class="animable"></rect></g><g id="ellkftx2gw2qo"><rect x="396" y="377.57" width="4.57" height="12.31" style="fill: rgb(219, 219, 219); transform-origin: 398.285px 383.725px; transform: rotate(90deg);" class="animable"></rect></g><rect x="362.34" y="327.78" width="31.12" height="29.9" style="fill: rgb(235, 235, 235); transform-origin: 377.9px 342.73px;" id="el3h609u3tvzt" class="animable"></rect><rect x="393.46" y="327.78" width="11.83" height="29.9" style="fill: rgb(199, 199, 199); transform-origin: 399.375px 342.73px;" id="elea0t512yysk" class="animable"></rect><polygon points="362.34 342.73 393.46 342.73 369.16 343.5 362.34 342.73" style="fill: rgb(199, 199, 199); transform-origin: 377.9px 343.115px;" id="elhxx9kflspli" class="animable"></polygon><polygon points="393.46 354.07 362.34 354.07 386.64 354.84 393.46 354.07" style="fill: rgb(199, 199, 199); transform-origin: 377.9px 354.455px;" id="eld5n8ea8w1zt" class="animable"></polygon><polygon points="362.34 334.37 382.05 334.37 364.53 335 362.34 334.37" style="fill: rgb(199, 199, 199); transform-origin: 372.195px 334.685px;" id="eluk3z24e31qo" class="animable"></polygon><polygon points="393.46 349.67 373.75 349.67 391.27 350.3 393.46 349.67" style="fill: rgb(199, 199, 199); transform-origin: 383.605px 349.985px;" id="elq1hesm44u9l" class="animable"></polygon><polygon points="369.81 331.05 392.04 331.05 388.33 331.42 369.81 331.05" style="fill: rgb(199, 199, 199); transform-origin: 380.925px 331.235px;" id="el4cmf8lpndqr" class="animable"></polygon><polygon points="365.37 345.94 387.6 345.94 383.89 346.31 365.37 345.94" style="fill: rgb(199, 199, 199); transform-origin: 376.485px 346.125px;" id="elni4m0d9cb3b" class="animable"></polygon><polygon points="379.04 337.22 393.46 337.22 396.04 338.23 379.04 337.22" style="fill: rgb(235, 235, 235); transform-origin: 387.54px 337.725px;" id="elxob6c3u2llh" class="animable"></polygon><polygon points="358.37 337.22 372.79 337.22 375.37 338.23 358.37 337.22" style="fill: rgb(235, 235, 235); transform-origin: 366.87px 337.725px;" id="elqnw53en0ad" class="animable"></polygon><polygon points="376.88 350.66 362.45 350.66 359.88 351.67 376.88 350.66" style="fill: rgb(235, 235, 235); transform-origin: 368.38px 351.165px;" id="elgrxvfdd75vl" class="animable"></polygon><polygon points="393.46 347.25 405.04 347.25 407.62 348.25 393.46 347.25" style="fill: rgb(199, 199, 199); transform-origin: 400.54px 347.75px;" id="elmftao5l2bdq" class="animable"></polygon><polygon points="397.5 342.73 406.48 342.73 405.29 341.91 397.5 342.73" style="fill: rgb(199, 199, 199); transform-origin: 401.99px 342.32px;" id="ell9sco8c9c5" class="animable"></polygon><rect x="404.44" y="367.55" width="10.07" height="38.11" style="fill: rgb(235, 235, 235); transform-origin: 409.475px 386.605px;" id="el06ycrthii41r" class="animable"></rect><path d="M409.48,375.07a2.1,2.1,0,1,1,2.1-2.1A2.1,2.1,0,0,1,409.48,375.07Z" style="fill: rgb(255, 255, 255); transform-origin: 409.48px 372.97px;" id="elv0nz4cbazl" class="animable"></path><path d="M409.48,374.17a1.2,1.2,0,1,1,1.2-1.2A1.2,1.2,0,0,1,409.48,374.17Z" style="fill: rgb(166, 166, 166); transform-origin: 409.48px 372.97px;" id="elxjijp6bldtc" class="animable"></path><g id="el8oy2nl0j0rr"><rect x="404.84" y="389.98" width="9.27" height="10.07" style="fill: rgb(255, 255, 255); transform-origin: 409.475px 395.015px; transform: rotate(90deg);" class="animable"></rect></g><rect x="354.02" y="397.8" width="38.11" height="7.92" style="fill: rgb(199, 199, 199); transform-origin: 373.075px 401.76px;" id="eljby4k2bf71o" class="animable"></rect><path d="M384.61,401.76a2.1,2.1,0,1,1,2.1,2.09A2.1,2.1,0,0,1,384.61,401.76Z" style="fill: rgb(255, 255, 255); transform-origin: 386.71px 401.75px;" id="el592e2sseoi" class="animable"></path><path d="M385.51,401.76a1.2,1.2,0,1,1,1.2,1.2A1.2,1.2,0,0,1,385.51,401.76Z" style="fill: rgb(166, 166, 166); transform-origin: 386.71px 401.76px;" id="elx6e5c17jfz" class="animable"></path><g id="elhoh139ghh47"><rect x="360.02" y="397.8" width="9.27" height="7.92" style="fill: rgb(255, 255, 255); transform-origin: 364.655px 401.76px; transform: rotate(180deg);" class="animable"></rect></g></g><g id="freepik--Plant--inject-9" class="animable" style="transform-origin: 438.454px 413.086px;"><path d="M462.19,390.46c-9.59,13-19.58,28.05-22,44.33,0,.25.37.33.42.08a97.65,97.65,0,0,1,4.24-13c6.31-1.74,12.49-3.16,15.8-9.42,3.38-6.43,2.95-14.81,2.31-21.82C462.89,390.23,462.38,390.21,462.19,390.46Z" style="fill: rgb(184, 184, 184); transform-origin: 451.796px 412.659px;" id="eljq2ickvmyzg" class="animable"></path><path d="M444.93,421.72c4.31-9.67,9.83-19.37,16.86-27.32,0,0,.12,0,.08.08-4.6,5.66-8.1,11.82-11.51,18.09,3.17-3.22,6.65-6.11,9.66-9.52.06-.07.15,0,.09.09-3,3.59-6.24,7.48-10.13,10.13-1.05,1.92-2.1,3.86-3.16,5.79.26-.15.53-.28.79-.41a0,0,0,0,1,.05.07c-.3.15-.59.31-.9.44l-1.52,2.73C445.12,422.1,444.84,421.92,444.93,421.72Z" style="fill: rgb(38, 50, 56); transform-origin: 453.395px 408.192px;" id="elstlsy1726oq" class="animable"></path><path d="M448.13,418.34a55.76,55.76,0,0,0,7.36-4.91c.06-.05.16,0,.09.09a39,39,0,0,1-7.34,5A.11.11,0,0,1,448.13,418.34Z" style="fill: rgb(38, 50, 56); transform-origin: 451.853px 415.967px;" id="elo528ilcj97m" class="animable"></path><path d="M439.06,432.37c0,.2.36.2.35,0,0-5.37,0-10.75.09-16.14,1.37-2.77,4.32-4.31,6.37-6.53a28.37,28.37,0,0,0,3.82-5.32,38.24,38.24,0,0,0,4.44-14.79c.57-5.74-1.61-24.67-4-24-1.25.34-5.31,9.72-6.38,12.81a88.56,88.56,0,0,0-3.82,15.72C437.94,406.72,438.1,419.67,439.06,432.37Z" style="fill: rgb(184, 184, 184); transform-origin: 446.297px 399.046px;" id="el0t8b7d6q7qua" class="animable"></path><path d="M439,409.24l0,0c.29-6.79,1.82-13.64,3.25-20.22,1.54-7.09,3.34-13.76,7-20.08a.1.1,0,0,1,.18.1,74.83,74.83,0,0,0-5.61,15.42c.24-.38.54-.74.79-1.11.1-.14.34,0,.24.14a9.73,9.73,0,0,1-1.14,1.61.06.06,0,0,1-.05,0c-1.25,5.07-2.16,10.25-2.93,15.42a1.63,1.63,0,0,0,.17-.2s.11,0,.08.06-.2.35-.3.52c-.39,2.62-.75,5.24-1.12,7.84,4.68-4,8.67-8.7,10.92-14.5,0,0,.05,0,0,0-2.2,6-5.68,11.36-11,15-.1.7-.2,1.4-.29,2.1,0,.14-.26.1-.26,0,0-.61,0-1.23.06-1.85A.15.15,0,0,1,439,409.24Z" style="fill: rgb(38, 50, 56); transform-origin: 444.715px 390.159px;" id="elzgf2n3q2yy" class="animable"></path><path d="M441.22,399.41a106.75,106.75,0,0,0,9.52-16.4c0-.06.15,0,.12.05a53.13,53.13,0,0,1-9.46,16.49C441.32,399.64,441.15,399.52,441.22,399.41Z" style="fill: rgb(38, 50, 56); transform-origin: 446.034px 391.283px;" id="el8zlikebun5" class="animable"></path><path d="M446,381.7c1.48-2.62,3-5.17,4.43-7.83,0-.08.14,0,.11.06a40.59,40.59,0,0,1-4.31,7.9C446.1,382,445.88,381.85,446,381.7Z" style="fill: rgb(38, 50, 56); transform-origin: 448.255px 377.871px;" id="el9nt4pi3h6s" class="animable"></path><path d="M445.39,382.84a0,0,0,1,1,0,0A0,0,0,1,1,445.39,382.84Z" style="fill: rgb(38, 50, 56); transform-origin: 445.39px 382.84px;" id="eluzakzjoclj" class="animable"></path><path d="M435.43,416.86a54.31,54.31,0,0,1-1.25,10.57c.06.38.11.76.17,1.16a50.71,50.71,0,0,0,1.89-11.78.36.36,0,0,0,0-.36v0a78.38,78.38,0,0,0-1.18-15.95c-1.66-9.86-5.29-19.31-12.16-26.7a.49.49,0,0,0-.76.16c-2.78,7.05-1.81,15.46.55,22.5a41.33,41.33,0,0,0,5.45,10.69C430.51,410.44,433.52,413.24,435.43,416.86Z" style="fill: rgb(184, 184, 184); transform-origin: 428.367px 401.136px;" id="elc2y6jdki85o" class="animable"></path><path d="M423.72,377.08c6.51,10.57,11,23.11,11.6,35.59,0,.22-.36.28-.39.06-.16-1.13-.33-2.24-.51-3.35h0a42.33,42.33,0,0,1-7.39-8.53c0-.05.05-.12.09-.07a90,90,0,0,0,7.18,7.81c-.47-2.76-1-5.47-1.67-8.15-.18-.2-.35-.41-.52-.61s.08-.32.19-.19l.16.17a95.38,95.38,0,0,0-3.4-10.81c-1.66-2-3.52-3.69-4.72-6.07a0,0,0,0,1,.08-.05c1,1.36,1.91,2.73,3,4,.44.5.93,1,1.38,1.46a83.6,83.6,0,0,0-5.33-11.11A.15.15,0,0,1,423.72,377.08Z" style="fill: rgb(38, 50, 56); transform-origin: 429.392px 394.952px;" id="eln8j27p0khug" class="animable"></path><path d="M425,390.12c2.1,2.83,4.5,5.54,6.46,8.47.05.08-.07.17-.14.1a43.61,43.61,0,0,1-6.47-8.49C424.84,390.11,425,390,425,390.12Z" style="fill: rgb(38, 50, 56); transform-origin: 428.161px 394.391px;" id="elanvl9qxoz6k" class="animable"></path><path d="M431.79,399.24l.09.09c.06.06,0,.16-.09.1l-.09-.09C431.63,399.28,431.73,399.18,431.79,399.24Z" style="fill: rgb(38, 50, 56); transform-origin: 431.79px 399.335px;" id="eluoese198u4" class="animable"></path><path d="M413.51,397.4a32.5,32.5,0,0,0,6.88,16.13,17.13,17.13,0,0,0,5.57,4.35c2.42,1.19,4.94,2.57,7.44,3.55a48.45,48.45,0,0,1,2.63,9.35c.08-.27.16-.55.25-.83-1.61-13.76-10.52-25.53-21.92-33.09A.56.56,0,0,0,413.51,397.4Z" style="fill: rgb(184, 184, 184); transform-origin: 424.893px 413.778px;" id="elpte35bde1qj" class="animable"></path><path d="M417.45,401.47c-.08-.07,0-.21.12-.15a46.59,46.59,0,0,1,14.52,17.9c.08.19-.17.35-.28.16-.53-.92-1.07-1.83-1.62-2.71h0c-2.6-.49-5.06-2.32-7-4.06-.05-.05,0-.12.08-.08a16,16,0,0,0,3.29,2.31c1.06.54,2.21.88,3.31,1.31-1-1.53-2-3-3-4.42a30.4,30.4,0,0,1-7.82-4.39c-.07-.06,0-.18.08-.13a81.86,81.86,0,0,0,7.26,3.89,64.2,64.2,0,0,0-5.13-6c-.88-.46-1.78-.93-2.63-1.43-.07,0,0-.16,0-.13a9.28,9.28,0,0,1,2,1C419.65,403.5,418.59,402.47,417.45,401.47Z" style="fill: rgb(38, 50, 56); transform-origin: 424.762px 410.385px;" id="el0kf54r31zwtr" class="animable"></path><path d="M417.7,406.23a4.25,4.25,0,0,1,.43.31c.05,0,0,.09-.05.07a2.59,2.59,0,0,1-.46-.26C417.54,406.3,417.62,406.17,417.7,406.23Z" style="fill: rgb(38, 50, 56); transform-origin: 417.869px 406.414px;" id="eltxnnblr8ffm" class="animable"></path><polygon points="454.06 460.6 422.83 460.6 425.35 432.16 425.91 425.89 450.99 425.89 451.54 432.16 454.06 460.6" style="fill: rgb(69, 90, 100); transform-origin: 438.445px 443.245px;" id="elsg5d1qq06rq" class="animable"></polygon><polygon points="451.54 432.16 425.35 432.16 425.91 425.89 450.99 425.89 451.54 432.16" style="fill: rgb(38, 50, 56); transform-origin: 438.445px 429.025px;" id="el6za3jgs48g" class="animable"></polygon><rect x="424.41" y="421.5" width="28.07" height="6.21" style="fill: rgb(69, 90, 100); transform-origin: 438.445px 424.605px;" id="elch8me69y52" class="animable"></rect></g><g id="freepik--Chair--inject-9" class="animable" style="transform-origin: 168.045px 345.215px;"><path d="M169.36,352.34c-4.43,2.62-8.9,5.16-13.38,7.68s-9,5-13.49,7.47-9,4.9-13.59,7.3l-6.83,3.58c-2.29,1.16-4.57,2.36-6.88,3.5,2.21-1.32,4.45-2.59,6.67-3.89l6.71-3.8c4.48-2.52,9-5,13.49-7.47s9-4.89,13.59-7.29S164.76,354.64,169.36,352.34Z" style="fill: rgb(219, 219, 219); transform-origin: 142.275px 367.105px;" id="elm7kec9elhn" class="animable"></path><path d="M119,352.34c4.28,2,8.52,4.16,12.74,6.3s8.42,4.35,12.64,6.52,8.37,4.43,12.53,6.7l6.24,3.41c2.06,1.17,4.14,2.31,6.19,3.5-2.15-1-4.26-2.07-6.4-3.11l-6.35-3.19c-4.22-2.14-8.42-4.35-12.63-6.52s-8.37-4.43-12.53-6.7S123.13,354.7,119,352.34Z" style="fill: rgb(219, 219, 219); transform-origin: 144.17px 365.555px;" id="el4wial5xps0y" class="animable"></path><path d="M220.48,352.34c-4.42,2.62-8.89,5.16-13.37,7.68s-9,5-13.5,7.47-9,4.9-13.59,7.3l-6.83,3.58c-2.29,1.16-4.57,2.36-6.87,3.5,2.21-1.32,4.44-2.59,6.66-3.89l6.71-3.8c4.48-2.52,9-5,13.5-7.47s9-4.89,13.59-7.29S215.88,354.64,220.48,352.34Z" style="fill: rgb(219, 219, 219); transform-origin: 193.4px 367.105px;" id="elx5ugy1hxug" class="animable"></path><path d="M170.14,352.34c4.28,2,8.52,4.16,12.75,6.3s8.42,4.35,12.63,6.52,8.38,4.43,12.54,6.7l6.23,3.41c2.07,1.17,4.14,2.31,6.19,3.5-2.14-1-4.26-2.07-6.39-3.11l-6.35-3.19c-4.23-2.14-8.42-4.35-12.63-6.52s-8.38-4.43-12.54-6.7S174.25,354.7,170.14,352.34Z" style="fill: rgb(219, 219, 219); transform-origin: 195.31px 365.555px;" id="ele6d9e11oitj" class="animable"></path><polygon points="211.14 345.26 213.84 361.51 232.19 460.6 235.15 460.6 221.81 361.51 219.84 345.26 211.14 345.26" style="fill: rgb(219, 219, 219); transform-origin: 223.145px 402.93px;" id="elzjnpzlyuok" class="animable"></polygon><polygon points="219.84 345.26 211.14 345.26 213.84 361.51 221.81 361.51 219.84 345.26" style="fill: rgb(199, 199, 199); transform-origin: 216.475px 353.385px;" id="elijcyiquoveq" class="animable"></polygon><polygon points="153.51 460.6 156.47 460.6 174.82 361.51 177.53 345.26 168.83 345.26 166.86 361.51 153.51 460.6" style="fill: rgb(219, 219, 219); transform-origin: 165.52px 402.93px;" id="elphyhrhil7ql" class="animable"></polygon><polygon points="168.83 345.26 166.86 361.51 174.82 361.51 177.53 345.26 168.83 345.26" style="fill: rgb(199, 199, 199); transform-origin: 172.195px 353.385px;" id="el50gr7hj4nbd" class="animable"></polygon><polygon points="98.47 460.6 101.43 460.6 119.78 361.51 122.49 345.26 113.79 345.26 111.82 361.51 98.47 460.6" style="fill: rgb(219, 219, 219); transform-origin: 110.48px 402.93px;" id="elex1972wqdmm" class="animable"></polygon><polygon points="111.82 361.51 119.78 361.51 122.49 345.26 113.79 345.26 111.82 361.51" style="fill: rgb(199, 199, 199); transform-origin: 117.155px 353.385px;" id="eliafsf15vdv" class="animable"></polygon><polygon points="103.16 352.89 237.62 352.89 237.62 338.73 187.29 338.73 170.37 229.83 108.29 229.83 103.16 352.89" style="fill: rgb(219, 219, 219); transform-origin: 170.39px 291.36px;" id="elvgmp1htiacf" class="animable"></polygon><polygon points="103.16 352.89 110.49 352.89 115.27 229.83 108.29 229.83 103.16 352.89" style="fill: rgb(199, 199, 199); transform-origin: 109.215px 291.36px;" id="elsfwqso50xl" class="animable"></polygon></g><g id="freepik--Table--inject-9" class="animable" style="transform-origin: 183.415px 370.245px;"><rect x="63.57" y="398.8" width="24.02" height="4.22" style="fill: rgb(69, 90, 100); transform-origin: 75.58px 400.91px;" id="elepqvfyobe6p" class="animable"></rect><polygon points="100.62 460.6 98.02 460.6 76.87 361.84 75.66 356.21 71.86 338.48 70.45 331.87 65.12 307.06 63.26 298.37 72.5 298.37 74.01 307.06 75 312.76 75.66 316.56 79.45 338.48 80.68 345.53 100.62 460.6" style="fill: rgb(69, 90, 100); transform-origin: 81.94px 379.485px;" id="elbqfiguj8fxi" class="animable"></polygon><polygon points="72.5 298.37 74.01 307.06 65.12 307.06 63.26 298.37 72.5 298.37" style="fill: rgb(38, 50, 56); transform-origin: 68.635px 302.715px;" id="elqttwaaeyurg" class="animable"></polygon><polygon points="80.68 345.53 76.87 361.84 75.66 356.21 71.86 338.48 70.45 331.87 75 312.76 75.66 316.56 79.45 338.48 80.68 345.53" style="fill: rgb(38, 50, 56); transform-origin: 75.565px 337.3px;" id="elof31tzux8jb" class="animable"></polygon><polygon points="88.05 298.37 86.19 307.06 79.45 338.48 75.66 356.21 53.29 460.6 50.7 460.6 71.86 338.48 75.66 316.56 77.3 307.06 78.81 298.37 88.05 298.37" style="fill: rgb(69, 90, 100); transform-origin: 69.375px 379.485px;" id="eltfgjsl35ah" class="animable"></polygon><polygon points="88.05 298.37 86.19 307.06 77.3 307.06 78.81 298.37 88.05 298.37" style="fill: rgb(38, 50, 56); transform-origin: 82.675px 302.715px;" id="el3jx89njjj3d" class="animable"></polygon><rect x="279.08" y="398.8" width="24.02" height="4.22" style="fill: rgb(69, 90, 100); transform-origin: 291.09px 400.91px;" id="elncd4o5hbx7" class="animable"></rect><polygon points="316.13 460.6 313.53 460.6 292.38 361.84 291.17 356.21 287.37 338.48 285.96 331.87 280.63 307.06 278.77 298.37 288.01 298.37 289.52 307.06 290.51 312.76 291.17 316.56 294.96 338.48 296.19 345.53 316.13 460.6" style="fill: rgb(69, 90, 100); transform-origin: 297.45px 379.485px;" id="elnolu3fqid5h" class="animable"></polygon><polygon points="288.01 298.37 289.52 307.06 280.63 307.06 278.77 298.37 288.01 298.37" style="fill: rgb(38, 50, 56); transform-origin: 284.145px 302.715px;" id="elvbigokk2kni" class="animable"></polygon><polygon points="296.19 345.53 292.38 361.84 291.17 356.21 287.37 338.48 285.96 331.87 290.51 312.76 291.17 316.56 294.96 338.48 296.19 345.53" style="fill: rgb(38, 50, 56); transform-origin: 291.075px 337.3px;" id="elefd3dqbqf3c" class="animable"></polygon><polygon points="303.56 298.37 301.7 307.06 294.96 338.48 291.17 356.21 268.8 460.6 266.21 460.6 287.37 338.48 291.17 316.56 292.81 307.06 294.32 298.37 303.56 298.37" style="fill: rgb(69, 90, 100); transform-origin: 284.885px 379.485px;" id="el3s8ho0faamr" class="animable"></polygon><polygon points="303.56 298.37 301.7 307.06 292.81 307.06 294.32 298.37 303.56 298.37" style="fill: rgb(38, 50, 56); transform-origin: 298.185px 302.715px;" id="elstm690ril7p" class="animable"></polygon><rect x="45.27" y="292.02" width="276.29" height="6.35" style="fill: rgb(69, 90, 100); transform-origin: 183.415px 295.195px;" id="eltw3dyj9nth" class="animable"></rect><rect x="36.62" y="279.89" width="293.59" height="12.13" style="fill: rgb(55, 71, 79); transform-origin: 183.415px 285.955px;" id="elmr6x6jf096" class="animable"></rect></g><g id="freepik--Sheets--inject-9" class="animable animator-active" style="transform-origin: 74.85px 258.595px;"><g id="eleo3nypiiuk"><rect x="60.36" y="237.9" width="43.08" height="41.39" style="fill: rgb(235, 235, 235); transform-origin: 81.9px 258.595px; transform: rotate(180deg);" class="animable"></rect></g><g id="elljd48gqyjj"><rect x="43.99" y="237.9" width="16.37" height="41.39" style="fill: rgb(199, 199, 199); transform-origin: 52.175px 258.595px; transform: rotate(180deg);" class="animable"></rect></g><polygon points="103.44 258.59 60.36 258.59 94 259.66 103.44 258.59" style="fill: rgb(199, 199, 199); transform-origin: 81.9px 259.125px;" id="elh0i7tp2q35" class="animable"></polygon><polygon points="60.36 274.29 103.44 274.29 69.8 275.36 60.36 274.29" style="fill: rgb(199, 199, 199); transform-origin: 81.9px 274.825px;" id="eltmp022v1tb" class="animable"></polygon><polygon points="103.44 247.02 76.15 247.02 100.41 247.89 103.44 247.02" style="fill: rgb(199, 199, 199); transform-origin: 89.795px 247.455px;" id="el7djpvrh2sjk" class="animable"></polygon><polygon points="60.36 268.2 87.65 268.2 63.39 269.07 60.36 268.2" style="fill: rgb(199, 199, 199); transform-origin: 74.005px 268.635px;" id="el5zlowtz0m5d" class="animable"></polygon><polygon points="93.11 242.42 62.33 242.42 67.46 242.94 93.11 242.42" style="fill: rgb(199, 199, 199); transform-origin: 77.72px 242.68px;" id="elgqrx6ddeb4w" class="animable"></polygon><polygon points="99.25 263.03 68.48 263.03 73.61 263.55 99.25 263.03" style="fill: rgb(199, 199, 199); transform-origin: 83.865px 263.29px;" id="elvjh1whj60ti" class="animable"></polygon><polygon points="80.33 250.97 60.36 250.97 56.8 252.36 80.33 250.97" style="fill: rgb(235, 235, 235); transform-origin: 68.565px 251.665px;" id="elmgfhb8gwgud" class="animable"></polygon><polygon points="108.94 250.97 88.97 250.97 85.41 252.36 108.94 250.97" style="fill: rgb(219, 219, 219); transform-origin: 97.175px 251.665px;" id="elkgmej0dylz" class="animable"></polygon><polygon points="83.32 269.57 103.28 269.57 106.85 270.96 83.32 269.57" style="fill: rgb(219, 219, 219); transform-origin: 95.085px 270.265px;" id="elznl78yg6rr" class="animable"></polygon><polygon points="60.36 264.85 44.33 264.85 40.76 266.24 60.36 264.85" style="fill: rgb(199, 199, 199); transform-origin: 50.56px 265.545px;" id="el99xcquie0s9" class="animable"></polygon><polygon points="54.77 258.59 42.33 258.59 43.99 257.46 54.77 258.59" style="fill: rgb(199, 199, 199); transform-origin: 48.55px 258.025px;" id="elpcsk9g5sm5f" class="animable"></polygon></g><g id="freepik--Clipboard--inject-9" class="animable" style="transform-origin: 344.005px 205.215px;"><rect x="237.07" y="69.82" width="219.85" height="292.01" style="fill: rgb(184, 184, 184); transform-origin: 346.995px 215.825px;" id="elx8ljq04dau8" class="animable"></rect><g id="elbxjc2r8a2bu"><g style="opacity: 0.1; transform-origin: 346.995px 215.825px;" class="animable"><rect x="237.07" y="69.82" width="219.85" height="292.01" style="fill: rgb(2, 1, 0); transform-origin: 346.995px 215.825px;" id="eltw1k6133dt" class="animable"></rect></g></g><rect x="231.09" y="69.82" width="219.85" height="292.01" style="fill: rgb(184, 184, 184); transform-origin: 341.015px 215.825px;" id="elhi8zun3s44o" class="animable"></rect><g id="eljahu6ulas7s"><rect x="246.04" y="82.71" width="194.08" height="263.09" style="fill: rgb(235, 235, 235); transform-origin: 343.08px 214.255px; transform: rotate(-0.73deg);" class="animable"></rect></g><g id="elqv1y10tmqy"><rect x="208.55" y="117.21" width="263.09" height="194.08" style="fill: rgb(219, 219, 219); transform-origin: 340.095px 214.25px; transform: rotate(-88.76deg);" class="animable"></rect></g><rect x="243.06" y="82.71" width="194.08" height="263.09" style="fill: rgb(255, 255, 255); transform-origin: 340.1px 214.255px;" id="elfkuoa6k92u6" class="animable"></rect><path d="M286.15,162.42c-5.18.13-15.23.33-20.41.39-.11-6-.08-14.39-.13-20.43v-.5h.5c6.07.06,14.44,0,20.43.12-.07,5.19-.25,15.24-.39,20.42Zm0,0c-.13-5-.31-15-.38-20l.38.38c-5.79.07-14.16.09-20,.12l.5-.5c0,5.91-.05,14.21-.12,20l-.38-.38c5,.06,15.05.26,20,.38Z" style="fill: rgb(199, 199, 199); transform-origin: 276.075px 152.345px;" id="el3i6ezu3atbc" class="animable"></path><path d="M296.8,145.81c14.69-.68,29.5-.68,44.19,0-14.7.69-29.5.68-44.19,0Z" style="fill: rgb(199, 199, 199); transform-origin: 318.895px 145.812px;" id="elkokdqde9bb" class="animable"></path><path d="M296.8,150.64c37.68-.67,79.57-.65,117.28,0-37.72.64-79.59.66-117.28,0Z" style="fill: rgb(199, 199, 199); transform-origin: 355.44px 150.636px;" id="el6mh9bjyfpnn" class="animable"></path><path d="M267.59,151.36c.74.62,1.44,1.26,2.14,1.91s1.37,1.32,2,2c1.35,1.33,2.65,2.7,3.93,4.09l-2.29.15a89.6,89.6,0,0,1,6.24-11q1.74-2.62,3.7-5.12a47.88,47.88,0,0,1,4.28-4.77,47.89,47.89,0,0,1-2.24,6c-.85,1.93-1.79,3.82-2.8,5.66a92.23,92.23,0,0,1-6.78,10.62l-1.26,1.68-1-1.53c-1.06-1.57-2.1-3.15-3.1-4.76-.48-.82-1-1.62-1.46-2.45S268,152.22,267.59,151.36Z" style="fill: rgb(38, 50, 56); transform-origin: 277.59px 150.6px;" id="ellhsjpcatu8" class="animable"></path><path d="M286.15,200c-5.18.13-15.23.33-20.41.39-.11-6-.08-14.38-.13-20.43v-.5h.5c6.07.06,14.44,0,20.43.13-.07,5.19-.25,15.23-.39,20.41Zm0,0c-.13-5-.31-15-.38-20l.38.39c-5.79.07-14.16.08-20,.11l.5-.5c0,5.91-.05,14.22-.12,20l-.38-.38c5,.06,15.05.26,20,.38Z" style="fill: rgb(199, 199, 199); transform-origin: 276.075px 189.925px;" id="elda6jjyjua75" class="animable"></path><path d="M296.8,183.36c14.69-.68,29.5-.69,44.19,0-14.7.68-29.5.68-44.19,0Z" style="fill: rgb(199, 199, 199); transform-origin: 318.895px 183.358px;" id="elewidrpnv39" class="animable"></path><path d="M296.8,188.18c37.68-.66,79.57-.65,117.28,0-37.72.65-79.59.67-117.28,0Z" style="fill: rgb(199, 199, 199); transform-origin: 355.44px 188.182px;" id="elqnyepafq2kr" class="animable"></path><path d="M267.59,188.9c.74.62,1.44,1.26,2.14,1.91s1.37,1.32,2,2c1.35,1.34,2.65,2.71,3.93,4.1l-2.29.14a90.23,90.23,0,0,1,6.24-10.94q1.74-2.62,3.7-5.12a46.79,46.79,0,0,1,4.28-4.77,47.75,47.75,0,0,1-2.24,6c-.85,1.94-1.79,3.82-2.8,5.67a92.11,92.11,0,0,1-6.78,10.61l-1.26,1.69-1-1.54c-1.06-1.56-2.1-3.14-3.1-4.76-.48-.82-1-1.62-1.46-2.45S268,189.76,267.59,188.9Z" style="fill: rgb(38, 50, 56); transform-origin: 277.59px 188.205px;" id="elun6zs45trx7" class="animable"></path><path d="M286.15,237.51c-5.18.13-15.23.33-20.41.39-.11-6-.08-14.39-.13-20.43V217h.5c6.07.06,14.44,0,20.43.12-.07,5.19-.25,15.23-.39,20.42Zm0,0c-.13-5-.31-15-.38-20l.38.38c-5.79.07-14.16.09-20,.12l.5-.5c0,5.91-.05,14.21-.12,20l-.38-.38c5,.06,15.05.26,20,.38Z" style="fill: rgb(199, 199, 199); transform-origin: 276.075px 227.45px;" id="el1021s6wwtr0o" class="animable"></path><path d="M296.8,220.9c14.69-.68,29.5-.68,44.19,0-14.7.68-29.5.68-44.19,0Z" style="fill: rgb(199, 199, 199); transform-origin: 318.895px 220.9px;" id="el7e8ud12mwyx" class="animable"></path><path d="M296.8,225.73c37.68-.67,79.57-.65,117.28,0-37.72.64-79.59.66-117.28,0Z" style="fill: rgb(199, 199, 199); transform-origin: 355.44px 225.726px;" id="eld45ng9klrkn" class="animable"></path><path d="M286.15,275.05c-5.18.13-15.23.33-20.41.39-.11-6-.08-14.38-.13-20.43v-.5h.5c6.07.06,14.44,0,20.43.13-.07,5.18-.25,15.23-.39,20.41Zm0,0c-.13-5-.31-15-.38-20l.38.39c-5.79.07-14.16.08-20,.11l.5-.5c0,5.91-.05,14.22-.12,20l-.38-.38c5,.06,15.05.26,20,.38Z" style="fill: rgb(199, 199, 199); transform-origin: 276.075px 264.975px;" id="elxmd8qfp29c" class="animable"></path><path d="M296.8,258.45c14.69-.69,29.5-.69,44.19,0-14.7.68-29.5.68-44.19,0Z" style="fill: rgb(199, 199, 199); transform-origin: 318.895px 258.446px;" id="eli5qomrhawhk" class="animable"></path><path d="M296.8,263.27c37.68-.66,79.57-.65,117.28,0-37.72.65-79.59.67-117.28,0Z" style="fill: rgb(199, 199, 199); transform-origin: 355.44px 263.272px;" id="elbisdyho7acb" class="animable"></path><path d="M286.15,312.6c-5.18.13-15.23.32-20.41.39-.11-6-.08-14.39-.13-20.43v-.5h.5c6.07.06,14.44,0,20.43.12-.07,5.19-.25,15.23-.39,20.42Zm0,0c-.13-5-.31-15.05-.38-20l.38.38c-5.79.07-14.16.09-20,.12l.5-.5c0,5.91-.05,14.21-.12,20l-.38-.38c5,.06,15.05.26,20,.38Z" style="fill: rgb(199, 199, 199); transform-origin: 276.075px 302.525px;" id="el2198gdujvnl" class="animable"></path><path d="M296.8,296c14.69-.68,29.5-.68,44.19,0-14.7.68-29.5.68-44.19,0Z" style="fill: rgb(199, 199, 199); transform-origin: 318.895px 296px;" id="el8t61aef571s" class="animable"></path><path d="M296.8,300.82c37.68-.67,79.57-.65,117.28,0-37.72.64-79.59.66-117.28,0Z" style="fill: rgb(199, 199, 199); transform-origin: 355.44px 300.816px;" id="els1x90znuddb" class="animable"></path><path d="M321.85,110.68h-2.69v9a.93.93,0,0,1-1.86,0v-9h-2.68a.94.94,0,0,1-.93-.94.92.92,0,0,1,.93-.93h7.23a.92.92,0,0,1,.93.93A1,1,0,0,1,321.85,110.68Z" style="fill: rgb(184, 184, 184); transform-origin: 318.235px 114.707px;" id="ela70xtxbewr7" class="animable"></path><path d="M330,117.86h-4.11l-.83,2.2a.94.94,0,0,1-.88.59,1.07,1.07,0,0,1-.32-.05,1,1,0,0,1-.56-1.22l3.74-10a1,1,0,0,1,.9-.59,1,1,0,0,1,.9.59l3.74,10a1,1,0,0,1-.56,1.22,1.07,1.07,0,0,1-.32.05.92.92,0,0,1-.87-.59Zm-.69-1.86-1.37-3.64L326.57,116Z" style="fill: rgb(184, 184, 184); transform-origin: 327.94px 114.72px;" id="el05uxh4c8ona7" class="animable"></path><path d="M334.23,117.71a.88.88,0,0,1,1.24-.12,5.48,5.48,0,0,0,3.23,1.3,3.6,3.6,0,0,0,2.12-.63,1.52,1.52,0,0,0,.72-1.21,1,1,0,0,0-.15-.55,1.62,1.62,0,0,0-.51-.5,6.89,6.89,0,0,0-2.31-.8h0a8.82,8.82,0,0,1-2.18-.66,3.7,3.7,0,0,1-1.58-1.32,2.61,2.61,0,0,1-.38-1.39,3.13,3.13,0,0,1,1.35-2.47,5.06,5.06,0,0,1,2.93-.89,6.65,6.65,0,0,1,3.69,1.35.87.87,0,0,1,.23,1.2.85.85,0,0,1-1.2.26,4.87,4.87,0,0,0-2.72-1.09,3.25,3.25,0,0,0-1.9.58,1.33,1.33,0,0,0-.64,1.06.8.8,0,0,0,.12.48,1.57,1.57,0,0,0,.45.44,6,6,0,0,0,2.12.74h0a10.05,10.05,0,0,1,2.34.71,4,4,0,0,1,1.69,1.41,2.76,2.76,0,0,1,.41,1.44,3.27,3.27,0,0,1-1.46,2.62,5.29,5.29,0,0,1-3.13,1,7.23,7.23,0,0,1-4.33-1.69A.9.9,0,0,1,334.23,117.71Z" style="fill: rgb(184, 184, 184); transform-origin: 338.667px 114.57px;" id="elfeg0od10xev" class="animable"></path><path d="M345.89,119.72v-9.9a.93.93,0,0,1,1.86,0v4.86l5.48-5.5a.92.92,0,0,1,1.32,0,.94.94,0,0,1,0,1.32l-3.72,3.7,3.76,4.93a.9.9,0,0,1-.14,1.3.87.87,0,0,1-.59.22.91.91,0,0,1-.69-.34l-3.66-4.79-1.76,1.8v2.4a.93.93,0,1,1-1.86,0Z" style="fill: rgb(184, 184, 184); transform-origin: 350.355px 114.77px;" id="elb49ppoz2jlt" class="animable"></path><path d="M357.45,117.71a.86.86,0,0,1,1.23-.12,5.5,5.5,0,0,0,3.23,1.3,3.6,3.6,0,0,0,2.12-.63,1.51,1.51,0,0,0,.73-1.21.94.94,0,0,0-.16-.55,1.68,1.68,0,0,0-.5-.5,6.87,6.87,0,0,0-2.32-.8h0a8.82,8.82,0,0,1-2.18-.66,3.62,3.62,0,0,1-1.57-1.32,2.53,2.53,0,0,1-.39-1.39,3.13,3.13,0,0,1,1.35-2.47,5.06,5.06,0,0,1,2.93-.89,6.62,6.62,0,0,1,3.69,1.35.88.88,0,0,1-1,1.46,4.87,4.87,0,0,0-2.72-1.09,3.25,3.25,0,0,0-1.9.58,1.36,1.36,0,0,0-.64,1.06.88.88,0,0,0,.12.48,1.63,1.63,0,0,0,.46.44,5.94,5.94,0,0,0,2.11.74h0a10.11,10.11,0,0,1,2.33.71,4,4,0,0,1,1.69,1.41,2.67,2.67,0,0,1,.41,1.44,3.27,3.27,0,0,1-1.46,2.62,5.27,5.27,0,0,1-3.13,1,7.29,7.29,0,0,1-4.33-1.69A.89.89,0,0,1,357.45,117.71Z" style="fill: rgb(184, 184, 184); transform-origin: 361.85px 114.57px;" id="el43ecjnaly2q" class="animable"></path><rect x="291.24" y="64.49" width="95.33" height="29.06" style="fill: rgb(199, 199, 199); transform-origin: 338.905px 79.02px;" id="el94l9z2u1kjg" class="animable"></rect><path d="M368.05,48.6H308.89l-2.62,15.89h65.28ZM338.9,60a3.49,3.49,0,1,1,3.49-3.49A3.48,3.48,0,0,1,338.9,60Z" style="fill: rgb(199, 199, 199); transform-origin: 338.91px 56.545px;" id="elkn5uv3n2izf" class="animable"></path><polygon points="371.55 64.49 306.27 64.49 306.86 60.94 370.76 60.94 371.55 64.49" style="fill: rgb(166, 166, 166); transform-origin: 338.91px 62.715px;" id="elcrvm4govsoc" class="animable"></polygon></g><g id="freepik--Floor--inject-9" class="animable" style="transform-origin: 250px 460.6px;"><path d="M36.62,460.6c136.7-.61,290.06-.62,426.76,0-136.7.62-290.06.61-426.76,0Z" style="fill: rgb(38, 50, 56); transform-origin: 250px 460.6px;" id="el7mb2ymyfx8p" class="animable"></path></g><g id="freepik--Character--inject-9" class="animable" style="transform-origin: 197.157px 275.507px;"><path d="M239.68,460.59c-2.44.8-72.18-.09-74.81-1.82-1-.63-1.47-10.8-1.68-23.1v-.39c-.05-2.53-.08-5.15-.09-7.79,0-.37,0-.73,0-1.09l3.37-36.18,46.65.45-4.59,35.84-.06,1.42-.28,7.42,0,.76s26.54,12.28,29.23,14.48S242.13,459.82,239.68,460.59Z" style="fill: rgb(173, 99, 89); transform-origin: 201.942px 425.553px;" id="el567quop57ko" class="animable"></path><path d="M239.68,460.59c-2.44.8-72.18-.09-74.81-1.82-1-.63-1.47-10.8-1.68-23.1v-.39c-.05-2.53-.08-5.15-.09-7.79,0-.37,0-.73,0-1.09l45.43.11-.06,1.42-.28,7.42,0,.76s26.54,12.28,29.23,14.48S242.13,459.82,239.68,460.59Z" style="fill: rgb(235, 235, 235); transform-origin: 201.942px 443.643px;" id="eldgd42hw960k" class="animable"></path><path d="M239.69,460.59c-1.26.41-20.2.37-38.72,0-3.73-.08-7.43-.16-11-.26-13.21-.36-24.12-.9-25.13-1.56s-1.47-10.52-1.67-22.59c0-.17,0-.34,0-.51s0-.27,0-.4h.05l44.94.08,0,.76s26.55,12.28,29.24,14.47S242.13,459.81,239.69,460.59Z" style="fill: rgb(184, 184, 184); transform-origin: 201.976px 448.076px;" id="ellm8jcjr7l2d" class="animable"></path><path d="M238.93,457.88c-11.75-.44-59.19-1.1-70.84-.64-.1,0-.1.07,0,.08,11.64.69,59.08,1,70.84.75C239.18,458.07,239.18,457.89,238.93,457.88Z" style="fill: rgb(38, 50, 56); transform-origin: 203.566px 457.62px;" id="elyqz0tjupli" class="animable"></path><path d="M213.19,435.54c-4.61-.92-10.28-.28-13.86,3-.14.13,0,.32.2.28a65.1,65.1,0,0,1,13.63-2.66A.3.3,0,0,0,213.19,435.54Z" style="fill: rgb(38, 50, 56); transform-origin: 206.379px 436.991px;" id="elgaga996b895" class="animable"></path><path d="M216.5,437.6c-4.61-.92-10.28-.29-13.85,3-.14.13,0,.33.19.28a65.06,65.06,0,0,1,13.64-2.66A.29.29,0,0,0,216.5,437.6Z" style="fill: rgb(38, 50, 56); transform-origin: 209.697px 439.052px;" id="el1c7s6tf3427" class="animable"></path><path d="M219.82,439.65c-4.62-.92-10.28-.28-13.86,3-.14.13,0,.32.19.28a64.55,64.55,0,0,1,13.64-2.66A.3.3,0,0,0,219.82,439.65Z" style="fill: rgb(38, 50, 56); transform-origin: 213.009px 441.101px;" id="eltrhfr2hq9b" class="animable"></path><path d="M201,460.59c-3.73-.08-7.43-.16-11-.26-13.21-.36-24.12-.9-25.13-1.56s-1.47-10.52-1.67-22.59c0-.17,0-.34,0-.51s0-.27,0-.4h.05C169.4,439.59,191.1,454,201,460.59Z" style="fill: rgb(38, 50, 56); transform-origin: 182.1px 447.93px;" id="ell3c2ejuce5h" class="animable"></path><path d="M210.87,435.51H160.65s10.08-117.31,9.69-119.36c-.5-2.62-3.47-14.49-7.42-30-1.24-4.86-2.58-10.06-4-15.46-3.75-14.59-7.88-30.54-11.48-44.42-5.41-20.79-9.62-31.5-9.62-31.5h42.56s35,100.18,36.39,120.88C218,333.71,210.87,435.51,210.87,435.51Z" style="fill: rgb(38, 50, 56); transform-origin: 177.366px 315.14px;" id="el657qn46lhti" class="animable"></path><path d="M208.64,426.94c-7.67-.16-5.46-.22-13.13-.3-3.76,0-28.43-.24-31.94.34-.07,0-.07.14,0,.16,3.51.58,28.18.36,31.94.32,7.67-.08,5.46-.14,13.13-.3A.11.11,0,1,0,208.64,426.94Z" style="fill: rgb(55, 71, 79); transform-origin: 186.134px 427.062px;" id="elv4wx5ecpwgs" class="animable"></path><path d="M179.79,309c-1.65-7.26-4.11-14.37-6.26-21.5q-6.53-21.72-13.15-43.41c-2.2-7.23-12.41-34.29-13.42-37.89-.41-1.46-.63-.66-.1,1.2,1.06,3.75,18.5,57.39,22.92,72.09q3.32,11.06,6.65,22.1a91.46,91.46,0,0,1,2.72,10.69,49.19,49.19,0,0,1,.44,11.44c-.48,7.68-1.37,15.36-2.07,23l-2.13,23q-2.12,22.94-4.2,45.87c-.17,1.94-.34,3.87-.49,5.81,0,.65.93.6,1,0,1.65-15.12,2.92-30.29,4.33-45.43s2.82-30.13,4.22-45.2c.36-3.78.76-7.57.76-11.37A47.14,47.14,0,0,0,179.79,309Z" style="fill: rgb(55, 71, 79); transform-origin: 163.779px 313.657px;" id="elzivuznskww" class="animable"></path><path d="M175.59,194.77c-3,22.86-8.57,60.29-12.67,91.39-9.61-37.68-25.06-91.38-25.06-91.38Z" style="fill: rgb(55, 71, 79); transform-origin: 156.725px 240.465px;" id="el56mklo8aab9" class="animable"></path><path d="M187.75,461.28c-2.45.8-72.19.16-74.82-1.55-1-.63-1.52-10.8-1.77-23.1v-.39c-.06-2.53-.1-5.14-.12-7.79,0-.36,0-.73,0-1.09-.17-17.76,1.11-36.18,1.11-36.18l45.58.29-1.27,35.84,0,1.42-.26,7.42,0,.76s26.58,12.19,29.29,14.37S190.19,460.49,187.75,461.28Z" style="fill: rgb(173, 99, 89); transform-origin: 149.939px 426.401px;" id="elrbd0mm86v3" class="animable"></path><path d="M187.75,461.28c-2.45.8-72.19.16-74.82-1.55-1-.63-1.52-10.8-1.77-23.1v-.39c-.06-2.53-.1-5.14-.12-7.79,0-.36,0-.73,0-1.09l45.42-.05,0,1.42-.26,7.42,0,.76s26.58,12.19,29.29,14.37S190.19,460.49,187.75,461.28Z" style="fill: rgb(235, 235, 235); transform-origin: 149.947px 444.466px;" id="el65tfzx70koo" class="animable"></path><path d="M187.75,461.28c-2.45.8-72.19.16-74.82-1.55-1-.63-1.52-10.8-1.77-23.1v-.39l45-.09,0,.76s26.58,12.19,29.29,14.37S190.19,460.49,187.75,461.28Z" style="fill: rgb(184, 184, 184); transform-origin: 150.002px 448.886px;" id="elir44x3quop" class="animable"></path><path d="M187,458.57c-11.75-.4-59.19-.88-70.84-.38-.1,0-.1.07,0,.07,11.64.65,59.08.75,70.84.5C187.23,458.75,187.23,458.58,187,458.57Z" style="fill: rgb(38, 50, 56); transform-origin: 151.629px 458.431px;" id="elpp65rn2kfec" class="animable"></path><path d="M161.16,436.32c-4.62-.9-10.28-.24-13.85,3-.13.13.05.32.2.28a64.3,64.3,0,0,1,13.63-2.71A.3.3,0,0,0,161.16,436.32Z" style="fill: rgb(38, 50, 56); transform-origin: 154.311px 437.779px;" id="eluzrwchsbx4a" class="animable"></path><path d="M164.48,438.37c-4.62-.91-10.28-.25-13.85,3-.13.13.05.32.2.28A65.18,65.18,0,0,1,164.46,439,.29.29,0,0,0,164.48,438.37Z" style="fill: rgb(38, 50, 56); transform-origin: 157.685px 439.826px;" id="elix4y80l5tia" class="animable"></path><path d="M167.8,440.41c-4.62-.91-10.28-.25-13.84,3-.14.12,0,.32.19.27A65.18,65.18,0,0,1,167.78,441,.29.29,0,0,0,167.8,440.41Z" style="fill: rgb(38, 50, 56); transform-origin: 160.993px 441.862px;" id="el71mr0tusyot" class="animable"></path><path d="M180.13,194.77a164.24,164.24,0,0,1-5.63,31.06c-.37,1.33-.78,2.64-1.22,3.9,0,0-3.76,1.76-11.18,6.31,0,0-.48,16.39-1,34.66-.54,20.43-1.1,43.22-1,48.05.43,18.08-2.24,117.5-2.24,117.5l-50.21.22s9-111,9-117.66c-.1-10.65,2.42-57.7,4.36-92,1.19-21.14,2.17-32,2.17-32Z" style="fill: rgb(38, 50, 56); transform-origin: 143.89px 315.62px;" id="eltwyehpaul8r" class="animable"></path><path d="M156.19,427.32c-7.67-.12-5.47-.2-13.14-.23-3.75,0-28.42-.13-31.93.47-.08,0-.07.14,0,.15,3.51.57,28.18.24,31.94.19,7.67-.11,5.46-.16,13.13-.35A.12.12,0,0,0,156.19,427.32Z" style="fill: rgb(55, 71, 79); transform-origin: 133.67px 427.559px;" id="elt4o1weydbv" class="animable"></path><path d="M127.44,202.06c-.92,28-1.89,50.59-3.14,78.6s-2.94,56.18-5.28,84.21c-1.31,15.66-2.54,37.69-4.23,53.32,0,.1.15.14.16,0,3.65-27.79,5.68-62.15,7.48-90.12s3-56,3.95-84c.53-15.84.94-26.25,1.41-42.09C127.8,201.81,127.45,201.83,127.44,202.06Z" style="fill: rgb(55, 71, 79); transform-origin: 121.29px 310.074px;" id="el7qvwovd75qy" class="animable"></path><path d="M129.37,220.26c1.24-.32,2.56-.42,3.82-.62,1-.16,2-.34,3-.56a13.28,13.28,0,0,0,5.36-2.26c2.5-2,5.38-11.87,5.73-12.5.6-1.09.78-.14.78,0,0,1.15-2.63,9.83-3.65,11.45-1.86,3-5.2,4.16-8.53,4.58-.95.12-1.91.19-2.87.24a20.13,20.13,0,0,1-3.64,0A.17.17,0,0,1,129.37,220.26Z" style="fill: rgb(55, 71, 79); transform-origin: 138.65px 212.238px;" id="el0azauggh118e" class="animable"></path><path d="M173.12,230A89.93,89.93,0,0,0,159,236.56a.16.16,0,0,0,.13.29c4.76-2,9.62-4,14.27-6.31A.31.31,0,0,0,173.12,230Z" style="fill: rgb(55, 71, 79); transform-origin: 166.219px 233.422px;" id="ell5mx8etiznt" class="animable"></path><path d="M174.55,197.34c0-.16-.3-.2-.3,0a157.31,157.31,0,0,1-.8,15.91c-.22,2.46-2.19,16-6.45,15-.71-.16-1.07-.87-1.18-1.94a17,17,0,0,1,.56-4.16c.47-2.84.85-5.69,1.1-8.55a78.27,78.27,0,0,0-.18-16.05.14.14,0,0,0-.27,0,146.45,146.45,0,0,1-1.3,22.15c-.53,3.52-2.31,8.83,1.38,9.38s6.19-8.35,6.65-10.78A81.07,81.07,0,0,0,174.55,197.34Z" style="fill: rgb(55, 71, 79); transform-origin: 169.864px 213.154px;" id="eli5ysqkvz2sr" class="animable"></path><path d="M167.12,228.63a21.14,21.14,0,0,0-1,2.81,6.57,6.57,0,0,0-.4,2.31c0,.15.22.16.3.06a8.11,8.11,0,0,0,1-2.25c.32-.87.66-1.73,1-2.61A.47.47,0,0,0,167.12,228.63Z" style="fill: rgb(55, 71, 79); transform-origin: 166.884px 231.094px;" id="elxn1yfcur29" class="animable"></path><path d="M171.76,140.5c-1.47,22.38-.44,45.25,2.43,49.39,4.45,6.43,33.66,20.18,43.49,22.69,3.22.82,10.51-20.58,8.36-23.41s-34-15.25-35.59-16.72c-.85-.79-5.47-19.19-9.37-31.67C177.46,129.18,172.21,133.7,171.76,140.5Z" style="fill: rgb(173, 99, 89); transform-origin: 198.762px 173.127px;" id="el5lq7q9edzq6" class="animable"></path><path d="M206.61,209.7l9.58-26.94s-22.3-10-24.94-11.5c-1.12-.62-6.95-23.36-10-33.22-2-6.48-8.13-9.7-10.44,3.2-1.35,7.55-2.49,44.08,2.38,50.14C177.08,196.21,206.61,209.7,206.61,209.7Z" style="fill: rgb(69, 90, 100); transform-origin: 192.917px 171.036px;" id="el4ylrge74ngr" class="animable"></path><path d="M202.19,206.12c.38-2,3.32-10.05,4.08-12s4-9.86,4.83-11.9c0-.11.22-.08.17,0-.74,2-3.42,10.18-4.16,12.17s-3.76,10-4.82,11.77A.05.05,0,0,1,202.19,206.12Z" style="fill: rgb(38, 50, 56); transform-origin: 206.732px 194.171px;" id="elucgdfqrofy" class="animable"></path><g id="elu64x2a2m4vm"><path d="M197.23,205.26c-9-4.38-21.58-10.84-24-13.87-4.87-6.07-3.74-42.6-2.38-50.15,1.16-6.52,3.31-8.91,5.4-8.86Z" style="fill: rgb(2, 1, 0); opacity: 0.1; transform-origin: 183.455px 168.82px;" class="animable"></path></g><path d="M121.22,194.61c.11.18,61.11,7.62,61.78,7.11.25-.19,1.76-54.71-4.64-69.19-2.64-6-13.35-9.14-19.33-2.8C129.8,160.67,121.08,194.37,121.22,194.61Z" style="fill: rgb(235, 235, 235); transform-origin: 152.275px 163.995px;" id="ela2zkn8lbjzo" class="animable"></path><g id="el4y6kskskght"><rect x="184.64" y="140.82" width="27.7" height="134.83" style="fill: rgb(184, 184, 184); transform-origin: 198.49px 208.235px; transform: rotate(-109.53deg);" class="animable"></rect></g><g id="elu5bre4t4r0f"><rect x="184.64" y="140.82" width="27.7" height="134.83" style="fill: rgb(2, 1, 0); opacity: 0.2; transform-origin: 198.49px 208.235px; transform: rotate(-109.53deg);" class="animable"></rect></g><g id="elvhcioh2blp9"><g style="opacity: 0.1; transform-origin: 199.06px 207.905px;" class="animable"><path d="M255.51,179.14c-37.82,13.74-80.36,28.83-118.39,42,37.82-13.74,80.36-28.83,118.39-42Z" id="elley98hmx5i" class="animable" style="transform-origin: 196.315px 200.14px;"></path><path d="M257.35,184.32C219.53,198.05,177,213.14,139,226.3c37.82-13.74,80.36-28.82,118.39-42Z" id="el3kbyv075nvc" class="animable" style="transform-origin: 198.195px 205.3px;"></path><path d="M259.18,189.49c-37.82,13.74-80.36,28.83-118.39,42,37.82-13.74,80.37-28.83,118.39-42Z" id="eldvhjhqg2hnl" class="animable" style="transform-origin: 199.985px 210.49px;"></path><path d="M261,194.67c-37.82,13.74-80.36,28.83-118.39,42,37.82-13.74,80.36-28.82,118.39-42Z" id="eldp2bjp1kcoi" class="animable" style="transform-origin: 201.805px 215.67px;"></path></g></g><path d="M129.15,247.89s-15.57,7.49-20.82-7.31,11.56-18.8,11.56-18.8Z" style="fill: rgb(255, 154, 187); transform-origin: 118.232px 235.783px;" id="elaacw0rpmm4p" class="animable"></path><g id="elbvnttm29ep"><rect x="112.09" y="229.23" width="32.34" height="7.85" style="fill: rgb(166, 166, 166); transform-origin: 128.26px 233.155px; transform: rotate(-109.53deg);" class="animable"></rect></g><g id="elf6ds5m9ljy"><rect x="120.27" y="226.32" width="32.34" height="7.85" style="fill: rgb(166, 166, 166); transform-origin: 136.44px 230.245px; transform: rotate(-109.53deg);" class="animable"></rect></g><path d="M257.38,172.63l22.27,3.16,7.35,1L282,182.28l-15.29,16.49-4.73-1.3s2.83-3.85,2.87-3.93l-4.73-1.3s2.84-3.85,2.88-3.93l-4.71-1.24s2.82-3.91,2.85-4l-4.7-1.24s2.81-3.91,2.85-4l-4.71-1.24S257.35,172.71,257.38,172.63Z" style="fill: rgb(184, 184, 184); transform-origin: 270.79px 185.7px;" id="elohmltbhstdq" class="animable"></path><g id="el3jzyvef7l4a"><path d="M257.38,172.63l22.27,3.16,7.35,1L282,182.28l-15.29,16.49-4.73-1.3s2.83-3.85,2.87-3.93l-4.73-1.3s2.84-3.85,2.88-3.93l-4.71-1.24s2.82-3.91,2.85-4l-4.7-1.24s2.81-3.91,2.85-4l-4.71-1.24S257.35,172.71,257.38,172.63Z" style="fill: rgb(255, 255, 255); opacity: 0.8; transform-origin: 270.79px 185.7px;" class="animable"></path></g><polygon points="279.65 175.79 287 176.81 281.95 182.28 279.65 175.79" style="fill: rgb(38, 50, 56); transform-origin: 283.325px 179.035px;" id="el8ryv60nk4w6" class="animable"></polygon><path d="M153.72,133.34c-13.77,12.25-32.46,34.81-31.62,40.6,2.1,14.49,12.85,32.74,18.48,39.49,3.28,3.94,24.92-12.37,22.17-16-4.32-5.75-14.61-23.88-15.78-26.24-.63-1.26,8.92-18.54,14.12-30.38C166.75,127.93,160.44,127.38,153.72,133.34Z" style="fill: rgb(173, 99, 89); transform-origin: 142.679px 171.861px;" id="elnr2ilbldlr" class="animable"></path><path d="M170,208.8c-.78-1.59.05-2,2.87-.65s12.86,9.16,15.29,5.43-11.89-14.52-16.78-16.43S158,193.87,158,193.87C160.34,196.52,165.46,203.52,170,208.8Z" style="fill: rgb(173, 99, 89); transform-origin: 173.218px 204.225px;" id="el957kdtzghpi" class="animable"></path><path d="M140.43,213.32c6.93,7.24,15.12,16.69,26,19.76a5.56,5.56,0,0,0,3.67-.12c4.86,1.47,7-.39,7-.39,4.94,0,6.88-2.21,6.88-2.21s5.71,1.65,7.29-1.64c1.78-3.68-6.6-5.29-10.67-9-9.32-8.48-20.2-23.15-22.64-25.86Z" style="fill: rgb(173, 99, 89); transform-origin: 165.972px 213.693px;" id="elts3zkvya6ah" class="animable"></path><path d="M164.6,217.7a80.72,80.72,0,0,0,8.59,7,82.2,82.2,0,0,0,10.75,5.56.1.1,0,1,1-.07.18,42.89,42.89,0,0,1-19.38-12.58C164.37,217.69,164.46,217.58,164.6,217.7Z" style="fill: rgb(38, 50, 56); transform-origin: 174.232px 224.054px;" id="el13cun8r5aw4o" class="animable"></path><path d="M158.67,222.59c2.85,2.22,7.88,6.1,18.49,9.87,0,0,0,.08,0,.07a38.45,38.45,0,0,1-18.58-9.81C158.39,222.57,158.48,222.44,158.67,222.59Z" style="fill: rgb(38, 50, 56); transform-origin: 167.817px 227.527px;" id="elhgd1fce8fi" class="animable"></path><path d="M155.52,225.27c5,3.6,8.59,5.24,14.58,7.66,0,0,0,.08,0,.06-7.09-2-9.43-3.58-14.7-7.57C155.2,225.29,155.33,225.13,155.52,225.27Z" style="fill: rgb(38, 50, 56); transform-origin: 162.7px 229.104px;" id="el33t9q51ihn4" class="animable"></path><path d="M134.72,212.62l27.58-18.89-14-22.47c4.81-9.49,13.77-28.25,16.11-35.31,2.75-8.28-2-9.29-9.06-3.82-16,12.5-36.67,36.61-37.62,41.61C116.37,180.89,134.72,212.62,134.72,212.62Z" style="fill: rgb(69, 90, 100); transform-origin: 141.43px 170.672px;" id="elngw8d8fdzud" class="animable"></path><path d="M135.05,205.78c1.48-1.48,8.53-6.49,10.3-7.72s9-5.93,10.87-7.18c.1-.07.22.05.12.12-1.78,1.27-8.69,6.55-10.45,7.79S137,205,135.11,205.87C135.05,205.91,135,205.83,135.05,205.78Z" style="fill: rgb(38, 50, 56); transform-origin: 145.704px 198.37px;" id="el2hptv9pyxmt" class="animable"></path><path d="M159.38,148.44c-2.76,6.82-6.53,13.84-9.63,20.52-.22.48-.91,2-1,2.24,3.1,5.5,7,11.42,10.25,16.9l3.34,5.55,0,0,0,0-.76.48.71-.56,0,.07-3.67-5.35c-3.48-5.26-7.34-11-10.51-16.39-.13-.29-.31-.44-.29-.84a14.46,14.46,0,0,1,1-2.58c3.1-6.5,7.16-13.77,10.53-20.11Z" style="fill: rgb(38, 50, 56); transform-origin: 155.079px 171.25px;" id="elqyan45vsm7q" class="animable"></path><path d="M159.58,149.77a7.87,7.87,0,0,1-2.28,2.71,29.45,29.45,0,0,1,2.28-2.71Z" style="fill: rgb(38, 50, 56); transform-origin: 158.44px 151.125px;" id="eljhcelqo1rxr" class="animable"></path><path d="M217.15,203.51c1.67-3,4.26.68,4.26.68s-2.44-6.21.48-8.64,5.79,2.24,6,2.56c-.13-.33-2.22-6.1,1-8.24s5.5,2.88,5.64,3.21c0-.34-.22-5,2.57-6,4.8-1.84,6.49,11.3,9.75,13.9l7.53-1.89a10.37,10.37,0,0,0-3.16,4.94c-.88,2.75-1.45,4.58-2.72,5.86a3.77,3.77,0,0,1-4.43.81s.73,3.58-1.73,5.34c-1.26.9-3.83-.32-3.83-.32s.46,2.89-1.82,4.32c-1.82,1.15-4.11-.25-4.11-.25s-.84,3-3.08,3.55C225,224.46,213.57,209.94,217.15,203.51Z" style="fill: rgb(173, 99, 89); transform-origin: 235.423px 205.153px;" id="elr8teofz2tbp" class="animable"></path><path d="M248.64,200.77l5.58-1.66.66,0c7.45-.13,13.56,7.2,8.47,8.83-3.87,1.24-9.2-3.15-13-1.3h0Z" style="fill: rgb(173, 99, 89); transform-origin: 256.931px 203.636px;" id="el0nfzj4912o5" class="animable"></path><path d="M232.17,219.58s0,.12-.06.08A32,32,0,0,1,221.24,204c-.05-.2.25-.38.35-.17A65.35,65.35,0,0,0,232.17,219.58Z" style="fill: rgb(38, 50, 56); transform-origin: 226.702px 211.702px;" id="elmg372rutgu" class="animable"></path><path d="M238.53,215.78c0,.05,0,.13-.1.08-5.05-4-9.62-10.6-10.79-17.8,0-.25.17-.51.24-.23C229,202.56,234.45,211.42,238.53,215.78Z" style="fill: rgb(38, 50, 56); transform-origin: 233.085px 206.792px;" id="el9tsvjbkkwfm" class="animable"></path><path d="M234.61,192.55c1.39,6.86,4.84,12.59,9.23,18,.06.07-.05.14-.11.1-2.86-2-5.3-5.76-7-8.81a18.48,18.48,0,0,1-2.4-9.2C234.37,192.47,234.58,192.41,234.61,192.55Z" style="fill: rgb(38, 50, 56); transform-origin: 239.094px 201.567px;" id="elyxh4iixehz" class="animable"></path><path d="M167.43,125.47c-3,1.21-2.75,5.17-.7,10.06s5.25,8.34,8.54,8.08,4.52-4.91,4.82-7.58c.23-2.1-.54-6.34-4.16-8.41S169.14,124.78,167.43,125.47Z" style="fill: rgb(69, 90, 100); transform-origin: 172.655px 134.424px;" id="el2oer00qdhwj" class="animable"></path><path d="M174.44,141.74c-3.6-.55-7.77-8.56-8.35-13.52,0-.34,1.57-3.11,3.38-6.57,1.08-2.1,2.24-4.46,3.14-6.7L185.25,124a38.38,38.38,0,0,0-4.81,8,5.32,5.32,0,0,0-.28.95,1.24,1.24,0,0,1,0,.16C179.7,135,177.92,142.27,174.44,141.74Z" style="fill: rgb(173, 99, 89); transform-origin: 175.67px 128.359px;" id="elg3ma4ng8wni" class="animable"></path><path d="M180.16,133s0,.09,0,.15a9.47,9.47,0,0,1-1.47-.5c-8-3.45-5.94-14.15-5.18-17.09l3.15,2.26,8.63,6.19a38.22,38.22,0,0,0-4.81,8A5.19,5.19,0,0,0,180.16,133Z" style="fill: rgb(38, 50, 56); transform-origin: 178.995px 124.355px;" id="elg4rk4xhe6si" class="animable"></path><path d="M175.11,99.23c-2.8,4.86-3.5,20.58-.56,24.8,4.26,6.11,13,8.6,18.6,3.08,5.46-5.35,6-25.86,2.57-29.87C190.64,91.34,179.23,92.06,175.11,99.23Z" style="fill: rgb(173, 99, 89); transform-origin: 185.262px 111.728px;" id="el8nbh40r08cu" class="animable"></path><path d="M187.71,112.44s-.08,0-.08.09c0,1.06-.22,2.27-1.2,2.57,0,0,0,.07,0,.06C187.62,115.06,187.87,113.45,187.71,112.44Z" style="fill: rgb(38, 50, 56); transform-origin: 187.092px 113.8px;" id="elhw5k0lyoifh" class="animable"></path><path d="M186.82,111.29c-1.69-.22-2,3.19-.42,3.39S188.25,111.47,186.82,111.29Z" style="fill: rgb(38, 50, 56); transform-origin: 186.561px 112.984px;" id="eld06akg6lus" class="animable"></path><path d="M193.72,112.78s.08,0,.07.1c-.12,1.05-.09,2.28.83,2.71,0,0,0,.07,0,.06C193.46,115.38,193.43,113.75,193.72,112.78Z" style="fill: rgb(38, 50, 56); transform-origin: 194.093px 114.215px;" id="elgalmwwyo1f" class="animable"></path><path d="M194.76,111.76c1.71,0,1.54,3.44,0,3.42S193.33,111.74,194.76,111.76Z" style="fill: rgb(38, 50, 56); transform-origin: 194.813px 113.47px;" id="el5pxb0fr1zb9" class="animable"></path><path d="M185.38,108.62a13.33,13.33,0,0,0,1.39-.21,2.28,2.28,0,0,0,1.38-.47.74.74,0,0,0,0-.89,1.82,1.82,0,0,0-1.74-.53,2.65,2.65,0,0,0-1.71.83A.77.77,0,0,0,185.38,108.62Z" style="fill: rgb(38, 50, 56); transform-origin: 186.404px 107.55px;" id="el42uspud26di" class="animable"></path><path d="M196.47,109.05a13.71,13.71,0,0,1-1.32-.47,2.32,2.32,0,0,1-1.26-.74A.73.73,0,0,1,194,107a1.82,1.82,0,0,1,1.81-.18,2.64,2.64,0,0,1,1.51,1.15A.77.77,0,0,1,196.47,109.05Z" style="fill: rgb(38, 50, 56); transform-origin: 195.598px 107.862px;" id="elyeo25b3loah" class="animable"></path><path d="M185.49,121.72c.23.26.46.63.84.69a2.72,2.72,0,0,0,1.16-.16,0,0,0,0,1,0,.06,1.42,1.42,0,0,1-1.39.45,1.12,1.12,0,0,1-.75-1C185.38,121.69,185.46,121.68,185.49,121.72Z" style="fill: rgb(38, 50, 56); transform-origin: 186.42px 122.247px;" id="el2j6qhjoapa2" class="animable"></path><path d="M186.89,118.65a3.6,3.6,0,0,0,2.25,1.82,4.61,4.61,0,0,0,1.29.17,1,1,0,0,0,.25,0h.23a.27.27,0,0,0,.24-.22h0v-.11h0v-.1c.1-.81.13-2.05.13-2.05.28.18,1.74,1,1.75.56a54.79,54.79,0,0,0-.42-11,.1.1,0,0,0-.2,0c-.23,3.39.13,6.8,0,10.22a6.23,6.23,0,0,0-1.65-.67c-.12,0,0,2.4-.09,2.77a.08.08,0,0,1,0,0,5,5,0,0,1-3.62-1.48C186.92,118.5,186.83,118.56,186.89,118.65Z" style="fill: rgb(38, 50, 56); transform-origin: 190.004px 114.134px;" id="elemvsgz10nj" class="animable"></path><path d="M171.2,109.68c-.16-1.45-.8-13.76-.14-15.32s2.12-.55,2.16-.63.31-1.42,1.22-1.79a2.32,2.32,0,0,1,1.81.33s.49-1.38,1.44-1.62a1.86,1.86,0,0,1,1.69.67,2.4,2.4,0,0,1,1.71-1.46,1.56,1.56,0,0,1,1.61.94s.61-1.29,1.58-1.4,1.62,1,1.62,1a2.07,2.07,0,0,1,1.85-1,1.8,1.8,0,0,1,1.37,1.48,2.46,2.46,0,0,1,1.94-.94c1.07.14,1.22,1.53,1.22,1.53s.62-1.11,1.61-.87,1,1.68,1,1.68.9-1.4,1.89-.63c1.17.92,1.25,10,1,13.8,0,0-.42-2.81-1.5-2.85s-1.81,2.29-3.77,1.56-4.56-3-7.46-2.88-5.23,3-6.92,7.16C176.26,113.13,171.58,113.11,171.2,109.68Z" style="fill: rgb(38, 50, 56); transform-origin: 184.332px 100.757px;" id="eldylx3iazltl" class="animable"></path><path d="M184.82,117.32a4.46,4.46,0,1,1,5.43-4.48h0a4.48,4.48,0,0,1-5.43,4.48Zm1.82-8.13a4.34,4.34,0,0,0-1-.09,3.86,3.86,0,1,0,1,.09Z" style="fill: rgb(184, 184, 184); transform-origin: 185.791px 112.965px;" id="el30rl0d8waho" class="animable"></path><path d="M195,118.33c-1.66-.38-2.79-2.42-2.55-4.74a5.31,5.31,0,0,1,1.26-3,3,3,0,0,1,2.51-1.09,2.94,2.94,0,0,1,2.22,1.58,5.33,5.33,0,0,1,.62,3.2c-.26,2.45-1.95,4.28-3.77,4.09Zm1.38-8.2-.22,0a2.38,2.38,0,0,0-2,.9,4.63,4.63,0,0,0-1.11,2.66c-.23,2.12.81,4,2.3,4.13s2.89-1.44,3.12-3.56a4.85,4.85,0,0,0-.54-2.84A2.46,2.46,0,0,0,196.38,110.13Z" style="fill: rgb(184, 184, 184); transform-origin: 195.758px 113.939px;" id="elrjlcky0xydr" class="animable"></path><path d="M190.05,113.34l-.33-.5c.73-.49,2.36-1.09,3.33.18l-.48.36C191.71,112.24,190.12,113.29,190.05,113.34Z" style="fill: rgb(184, 184, 184); transform-origin: 191.385px 112.82px;" id="el2pybjah5zjs" class="animable"></path><path d="M170.16,112.42l-.49-.33c.15-.23,1.53-2.27,2.87-2.35s9.13,1.5,9.47,1.57l-.12.59c-2.26-.46-8.34-1.62-9.31-1.56S170.53,111.86,170.16,112.42Z" style="fill: rgb(184, 184, 184); transform-origin: 175.84px 111.079px;" id="el7yyunff4197" class="animable"></path><path d="M175.51,112.27s-2.41-5.61-4.89-4.86-1.38,8.4,1,9.92a2.7,2.7,0,0,0,3.85-.69Z" style="fill: rgb(173, 99, 89); transform-origin: 172.363px 112.597px;" id="elphku6auhuon" class="animable"></path><path d="M171,109.6s-.06,0,0,.06c1.68,1.13,2.29,3,2.6,4.93a1.49,1.49,0,0,0-2.11-.86c-.06,0,0,.11,0,.11a1.66,1.66,0,0,1,1.68.94,7.82,7.82,0,0,1,.55,1.63c.06.19.37.16.35,0v-.05C174.58,114,173.45,110.35,171,109.6Z" style="fill: rgb(38, 50, 56); transform-origin: 172.582px 113.071px;" id="el1kn1wc1kmpg" class="animable"></path></g><defs>     <filter id="active" height="200%">         <feMorphology in="SourceAlpha" result="DILATED" operator="dilate" radius="2"></feMorphology>                <feFlood flood-color="#32DFEC" flood-opacity="1" result="PINK"></feFlood>        <feComposite in="PINK" in2="DILATED" operator="in" result="OUTLINE"></feComposite>        <feMerge>            <feMergeNode in="OUTLINE"></feMergeNode>            <feMergeNode in="SourceGraphic"></feMergeNode>        </feMerge>    </filter>    <filter id="hover" height="200%">        <feMorphology in="SourceAlpha" result="DILATED" operator="dilate" radius="2"></feMorphology>                <feFlood flood-color="#ff0000" flood-opacity="0.5" result="PINK"></feFlood>        <feComposite in="PINK" in2="DILATED" operator="in" result="OUTLINE"></feComposite>        <feMerge>            <feMergeNode in="OUTLINE"></feMergeNode>            <feMergeNode in="SourceGraphic"></feMergeNode>        </feMerge>            <feColorMatrix type="matrix" values="0   0   0   0   0                0   1   0   0   0                0   0   0   0   0                0   0   0   1   0 "></feColorMatrix>    </filter></defs></svg>